<?xml version="1.0" encoding="UTF-8"?>
<!DOCTYPE svg PUBLIC "-//W3C//DTD SVG 1.1//EN" "http://www.w3.org/Graphics/SVG/1.1/DTD/svg11.dtd">
<svg xmlns="http://www.w3.org/2000/svg" version="1.1" width="512px" height="512px" style="shape-rendering:geometricPrecision; text-rendering:geometricPrecision; image-rendering:optimizeQuality; fill-rule:evenodd; clip-rule:evenodd" xmlns:xlink="http://www.w3.org/1999/xlink">
<g><path style="opacity:0.996" fill="#fe5a54" d="M 232.5,-0.5 C 247.833,-0.5 263.167,-0.5 278.5,-0.5C 378.271,12.4486 449.438,64.4486 492,155.5C 502.136,180.379 508.636,206.046 511.5,232.5C 511.5,247.833 511.5,263.167 511.5,278.5C 509.381,298.313 505.047,317.646 498.5,336.5C 441.875,272.038 385.042,207.705 328,143.5C 325.251,140.579 322.417,137.912 319.5,135.5C 295.954,103.595 264.954,93.0947 226.5,104C 196.516,116.658 179.35,139.158 175,171.5C 174.5,190.164 174.333,208.83 174.5,227.5C 160.995,230.171 152.495,238.171 149,251.5C 148.333,292.5 148.333,333.5 149,374.5C 150.875,384.859 156.375,392.526 165.5,397.5C 208.795,434.126 251.795,471.126 294.5,508.5C 289.189,509.645 283.856,510.645 278.5,511.5C 263.167,511.5 247.833,511.5 232.5,511.5C 132.727,498.549 61.5605,446.549 19,355.5C 8.86392,330.621 2.36392,304.954 -0.5,278.5C -0.5,263.167 -0.5,247.833 -0.5,232.5C 12.4486,132.729 64.4486,61.5622 155.5,19C 180.379,8.86392 206.046,2.36392 232.5,-0.5 Z"/></g>
<g><path style="opacity:1" fill="#fffdfd" d="M 319.5,135.5 C 325.263,144.704 329.096,154.704 331,165.5C 331.5,186.164 331.667,206.831 331.5,227.5C 347.701,227.871 357.867,235.871 362,251.5C 362.667,292.5 362.667,333.5 362,374.5C 359.154,388.013 350.987,396.18 337.5,399C 282.167,399.667 226.833,399.667 171.5,399C 169.564,398.187 167.564,397.687 165.5,397.5C 156.375,392.526 150.875,384.859 149,374.5C 148.333,333.5 148.333,292.5 149,251.5C 152.495,238.171 160.995,230.171 174.5,227.5C 174.333,208.83 174.5,190.164 175,171.5C 179.35,139.158 196.516,116.658 226.5,104C 264.954,93.0947 295.954,103.595 319.5,135.5 Z"/></g>
<g><path style="opacity:1" fill="#db3a3c" d="M 244.5,114.5 C 282.188,113.71 306.021,131.377 316,167.5C 316.5,187.497 316.667,207.497 316.5,227.5C 274.5,227.5 232.5,227.5 190.5,227.5C 190.333,207.164 190.5,186.831 191,166.5C 198.359,138.262 216.193,120.929 244.5,114.5 Z"/></g>
<g><path style="opacity:1" fill="#db3a3c" d="M 319.5,135.5 C 322.417,137.912 325.251,140.579 328,143.5C 385.042,207.705 441.875,272.038 498.5,336.5C 474.953,405.555 430.286,456.055 364.5,488C 342.246,498.563 318.913,505.396 294.5,508.5C 251.795,471.126 208.795,434.126 165.5,397.5C 167.564,397.687 169.564,398.187 171.5,399C 226.833,399.667 282.167,399.667 337.5,399C 350.987,396.18 359.154,388.013 362,374.5C 362.667,333.5 362.667,292.5 362,251.5C 357.867,235.871 347.701,227.871 331.5,227.5C 331.667,206.831 331.5,186.164 331,165.5C 329.096,154.704 325.263,144.704 319.5,135.5 Z"/></g>
<g><path style="opacity:1" fill="#dc3f40" d="M 247.5,270.5 C 269.89,268.579 282.89,278.579 286.5,300.5C 285.535,315.439 278.035,325.439 264,330.5C 263.667,337.5 263.333,344.5 263,351.5C 258,359.5 253,359.5 248,351.5C 247.831,344.476 247.331,337.476 246.5,330.5C 229.108,323.05 222.275,310.05 226,291.5C 230.065,281.236 237.232,274.236 247.5,270.5 Z"/></g>
<g><path style="opacity:1" fill="#fefcfc" d="M 250.5,285.5 C 266.856,285.02 273.023,292.687 269,308.5C 261.674,317.737 253.341,318.737 244,311.5C 237.647,300.561 239.813,291.894 250.5,285.5 Z"/></g>
</svg>
